<svg xmlns="http://www.w3.org/2000/svg" viewBox="0 0 700 520" fill="none">
  <defs>
    <linearGradient id="bldg1" x1="0" y1="0" x2="0" y2="1">
      <stop offset="0" stop-color="#22437a"/>
      <stop offset="1" stop-color="#0a1a35"/>
    </linearGradient>
    <linearGradient id="bldg2" x1="0" y1="0" x2="0" y2="1">
      <stop offset="0" stop-color="#17335f"/>
      <stop offset="1" stop-color="#070f24"/>
    </linearGradient>
  </defs>
  <rect x="40" y="220" width="120" height="300" fill="url(#bldg2)"/>
  <rect x="170" y="150" width="100" height="370" fill="url(#bldg1)"/>
  <rect x="280" y="260" width="90" height="260" fill="url(#bldg2)"/>
  <rect x="380" y="90" width="130" height="430" fill="url(#bldg1)"/>
  <rect x="520" y="190" width="100" height="330" fill="url(#bldg2)"/>
  <g fill="#cda05f" opacity="0.55">
    <rect x="60" y="250" width="10" height="10"/><rect x="85" y="250" width="10" height="10"/><rect x="110" y="250" width="10" height="10"/>
    <rect x="60" y="285" width="10" height="10"/><rect x="85" y="285" width="10" height="10"/><rect x="110" y="285" width="10" height="10"/>
    <rect x="60" y="320" width="10" height="10"/><rect x="85" y="320" width="10" height="10"/><rect x="110" y="320" width="10" height="10"/>
    <rect x="190" y="185" width="10" height="10"/><rect x="215" y="185" width="10" height="10"/><rect x="240" y="185" width="10" height="10"/>
    <rect x="190" y="220" width="10" height="10"/><rect x="215" y="220" width="10" height="10"/><rect x="240" y="220" width="10" height="10"/>
    <rect x="190" y="255" width="10" height="10"/><rect x="215" y="255" width="10" height="10"/><rect x="240" y="255" width="10" height="10"/>
    <rect x="190" y="290" width="10" height="10"/><rect x="215" y="290" width="10" height="10"/><rect x="240" y="290" width="10" height="10"/>
    <rect x="405" y="125" width="12" height="12"/><rect x="435" y="125" width="12" height="12"/><rect x="465" y="125" width="12" height="12"/>
    <rect x="405" y="165" width="12" height="12"/><rect x="435" y="165" width="12" height="12"/><rect x="465" y="165" width="12" height="12"/>
    <rect x="405" y="205" width="12" height="12"/><rect x="435" y="205" width="12" height="12"/><rect x="465" y="205" width="12" height="12"/>
    <rect x="405" y="245" width="12" height="12"/><rect x="435" y="245" width="12" height="12"/><rect x="465" y="245" width="12" height="12"/>
    <rect x="545" y="225" width="10" height="10"/><rect x="570" y="225" width="10" height="10"/><rect x="595" y="225" width="10" height="10"/>
    <rect x="545" y="260" width="10" height="10"/><rect x="570" y="260" width="10" height="10"/><rect x="595" y="260" width="10" height="10"/>
  </g>
  <rect x="0" y="518" width="700" height="2" fill="#b8874a" opacity="0.4"/>
</svg>
